<svg xmlns="http://www.w3.org/2000/svg" viewBox="0 0 215.78 192.78"><defs><style>.cls-1{fill:none;stroke:#c0ffee;stroke-miterlimit:10;}</style></defs><title>asdfAsset 1</title><g id="Layer_2" data-name="Layer 2"><g id="Layer_1-2" data-name="Layer 1"><path class="cls-1" d="M107.85,26.81c3.47-3.07,7.67-6.6,11.66-10.36C131.15,5.43,145-.1,161,.65c25.82,1.22,47.66,20.24,52.86,45.61,4.11,20-.33,38.08-14.08,53.26-12,13.22-24.58,25.86-36.92,38.74q-24.2,25.26-48.41,50.5c-4.48,4.67-8.57,4.7-13.07,0-28.79-30.06-57.67-60-86.27-90.28C6.4,89.33,1.93,77.95.79,65.36-1,45.15,5.57,28.1,20.57,14.47c20.89-19,53.83-18.53,74.54.81C99.52,19.4,104.06,23.39,107.85,26.81Zm.45,147.06a10.49,10.49,0,0,1,1.12-1.9Q148.18,131.53,187,91.11c13.46-14.08,16.76-33.41,8.54-51-11.65-24.91-43.78-34-65.81-12C124.37,33.4,119.28,38.94,114,44.35c-3.88,4-8.24,4.05-12.1.09C96,38.39,90.43,32,84.26,26.28c-8.54-8-19-11.89-30.6-10.57-26.22,3-41.84,28.56-36.88,52.67,2,9.71,7.06,17.56,13.88,24.56,12.25,12.58,24.32,25.33,36.47,38Z"/></g></g></svg>